<?xml version="1.0" encoding="UTF-8"?>
<svg id="Layer_1" xmlns="http://www.w3.org/2000/svg" viewBox="0 0 220 220">
  <defs>
    <style>
      .cls-1 {
        fill: #235347;
      }

      .cls-2 {
        fill: #daf1de;
      }
    </style>
  </defs>
  <rect class="cls-1" x="4.37" y="4.37" width="211.27" height="211.27" rx="17.54" ry="17.54"/>
  <path class="cls-2" d="M152.16,36.94c-3.22,0-5.82,2.61-5.82,5.82v22.56h-72.68v-22.56c0-3.22-2.61-5.82-5.82-5.82s-5.82,2.61-5.82,5.82v134.47c0,3.22,2.61,5.82,5.82,5.82s5.82-2.61,5.82-5.82v-22.56h72.68v22.56c0,3.22,2.61,5.82,5.82,5.82s5.82-2.61,5.82-5.82V42.77c0-3.22-2.61-5.82-5.82-5.82ZM146.34,76.97v27.2h-72.68v-27.2h72.68ZM73.66,143.03v-27.2h72.68v27.2h-72.68Z"/>
</svg>