<?xml version="1.0" encoding="UTF-8"?>
<svg id="Layer_1" xmlns="http://www.w3.org/2000/svg" viewBox="0 0 220 220">
  <defs>
    <style>
      .cls-1 {
        fill: #235347;
      }

      .cls-2 {
        fill: #daf1de;
      }
    </style>
  </defs>
  <rect class="cls-1" x="4.37" y="4.37" width="211.27" height="211.27" rx="17.54" ry="17.54"/>
  <g>
    <path class="cls-2" d="M132.18,57.06l-12.09-1.87c-3.1-5.43-14.48-23.98-25.28-23.98-2.36,0-4.42.87-6.13,2.59-3.2,3.21-4.32,9.14-5.38,15.71h0c-1.65,9.44-1.27,27.93,9.2,41.22,1.04,1.31,3.32,1.55,4.33.78,1.09-.83,2.67-2.4-2.05-7.75,8.92,3.5,4.78,9.36,3.82,10.08-.92.7-2.1,1.04-3.32,1.04-1.91,0-3.9-.82-5.09-2.33-10.26-13.01-11.87-32.04-9.82-43.48l-11.04-1.7c-6.82-1.05-14.75,13.63-17.71,32.8-2.96,19.17.18,35.56,7,36.62l62.77,9.69s.03,0,.05.01h-.02s.03,0,.03,0h0c.22.04.45.05.68.05.96,0,1.93-.3,2.9-.86-.62-.65-1.4-1.35-2.38-2.12-.18.04-.36.07-.52.07-.07,0-.14,0-.21-.02h0c-1.52-.28-3.55-3.19-4.7-9.12-1.28-6.59-1.23-15.15.15-24.1,2.9-18.86,10.2-30.45,14.16-30.45.07,0,.14,0,.21.02h0c1.52.28,3.55,3.19,4.7,9.12,1.26,6.47,1.22,14.83-.08,23.61,1.08.38,2.01.77,2.82,1.17.01-.08.03-.16.04-.24,2.94-19.12-.21-35.45-7.04-36.55ZM88.12,50.26c.53-5.31,1.66-10.63,4.02-13.01.78-.79,1.63-1.16,2.67-1.16,5.98,0,14.36,10.57,19.1,18.14l-25.78-3.98Z"/>
    <path class="cls-2" d="M143,159.35c-.83,4.06-.23,7.5,2.79,11.6-5.41-3.82-5.76-7.77-4.59-11.79,0,0,0,0,0,0,0,0,0-.01,0-.02.1-.35.22-.71.36-1.06,3.85-11.35,12.89-40.85,5.33-53.21-8.17-13.36-18.09-11.96-27.99-11.28-.62,5.5-1.85,20.04,2.63,27.31,2.85-.27,14.58,7.23,6.51,35.21-.09.29-.52,1.94-.7,2.33,0,0-2.92,9.48-9.76,10.28,3.52-1.98,6.57-6.44,7.27-10.27-25.08.28-45.14,6.57-45.14,14.31s20.98,14.32,46.85,14.32,46.85-6.41,46.85-14.32c0-6.14-12.66-11.38-30.43-13.41Z"/>
  </g>
</svg>