<?xml version="1.0" encoding="UTF-8"?>
<svg id="Layer_1" xmlns="http://www.w3.org/2000/svg" viewBox="0 0 220 220">
  <defs>
    <style>
      .cls-1 {
        fill: #235347;
      }

      .cls-2 {
        fill: #daf1de;
      }
    </style>
  </defs>
  <rect class="cls-1" x="4.37" y="4.37" width="211.27" height="211.27" rx="17.54" ry="17.54"/>
  <g>
    <circle class="cls-2" cx="136.48" cy="84.91" r="29.2"/>
    <path class="cls-2" d="M144.8,121.94l-15.16,8.45s-7.7-8.7-13.17-14.17c-7.95-.24-31.96-8.13-47.9-20.91.2-1.11-.38-2.61-.88-3.36-1.28-1.9-2.88-3.69-4.64-5.26,1.57-2.88,3.29-5.59,5.2-8.04l3.22,2.24c2.85,1.98,6.76,1.28,8.75-1.56.27-.38.17-.91-.21-1.18l-.52-.36c-1.57-1.1-2.32-1.62-3.19-2.22,1.24.65,2.68,1.37,3.7,1.79l15.91-13.45c.65-.55.6-1.55-.09-2.04l-4.46-3.11c-2.94,3.11-6.42,6.73-7.11,7.15,1.57-1.81,4.18-4.97,6.38-7.66l-16.31-11.37c-1.9,3.22-5.02,8.54-6.55,11.32.2-1,3.65-7.97,5.64-11.95l-5.22-3.64c-.69-.48-1.66-.18-1.95.62l-7.09,19.56c.74.81,1.96,1.97,3.03,2.93-.88-.62-1.64-1.14-3.27-2.28l-.54-.37c-.38-.27-.91-.17-1.18.21-1.98,2.85-1.28,6.76,1.56,8.75l3.18,2.22c-1.77,2.73-3.78,5.33-5.96,7.85-4.59-1.9-8.98-1.58-11.04,2.75-5.32,11.23-12.06,23.19,1.22,26.95,4.12,1.17,8.33.55,12-1.11,5.38,4.98,33.78,26.69,41.3,29.75-2.98,6.46-6.58,30.21-6.58,37.17h71.58c12.68-53.19-10.19-54.68-19.63-55.67Z"/>
    <path class="cls-2" d="M94.51,83.22c-.04-.08-.08-.15-.13-.23l-3.09-5.34-3.09,5.34c-.05.07-.08.15-.13.22l-.1.19c-.27.52-.43,1.09-.43,1.71,0,2.07,1.68,3.75,3.75,3.75s3.75-1.68,3.75-3.75c0-.62-.17-1.2-.43-1.71h0l-.11-.18Z"/>
  </g>
</svg>