<?xml version="1.0" encoding="UTF-8"?>
<svg id="Layer_1" xmlns="http://www.w3.org/2000/svg" viewBox="0 0 220 220">
  <defs>
    <style>
      .cls-1 {
        fill: #235347;
      }

      .cls-2 {
        fill: #daf1de;
      }
    </style>
  </defs>
  <rect class="cls-1" x="4.37" y="4.37" width="211.27" height="211.27" rx="17.54" ry="17.54"/>
  <path class="cls-2" d="M172.6,52.66h-9.73v-7.01c0-2.69-2.18-4.87-4.87-4.87H44.11c-2.28,0-4.12,1.84-4.12,4.12v19.54c0,2.28,1.84,4.12,4.12,4.12h1.92s0,0,0,0c0,0,.01,0,.02,0h111.94c2.69,0,4.87-2.18,4.87-4.87v-7.01h9.73c1.87,0,3.39,1.94,3.39,4.33v30.39c0,2.39-1.52,4.33-3.39,4.33h-67.46c-4.09,0-7.41,3.75-7.41,8.35v15.67h-1.66c-2.2,0-3.99,1.79-3.99,3.99v51.5c0,2.2,1.79,3.99,3.99,3.99h7.49c2.2,0,3.99-1.79,3.99-3.99v-51.5c0-2.2-1.79-3.99-3.99-3.99h-1.8v-15.67c0-2.39,1.52-4.33,3.39-4.33h67.46c4.09,0,7.41-3.75,7.41-8.35v-30.39c0-4.61-3.32-8.35-7.41-8.35ZM102.11,166.1l1.23,5.61c.13.62-.33,1.2-.96,1.2h-5.13c-.63,0-1.1-.58-.96-1.2l1.23-5.61c.1-.45.5-.78.96-.78h2.68c.46,0,.87.32.96.78Z"/>
</svg>