<?xml version="1.0" encoding="UTF-8"?>
<svg id="Layer_1" xmlns="http://www.w3.org/2000/svg" viewBox="0 0 220 220">
  <defs>
    <style>
      .cls-1 {
        fill: #235347;
      }

      .cls-2 {
        fill-rule: evenodd;
      }

      .cls-2, .cls-3 {
        fill: #daf1de;
      }
    </style>
  </defs>
  <circle class="cls-1" cx="110.05" cy="109.2" r="108.42"/>
  <g>
    <path class="cls-2" d="M160.26,143.12c3.09,1.56,5.16,2.31,5.94,3.57.78,1.3.78,7.47-1.85,14.65-2.53,7.24-14.36,13.68-19.91,15.06-3.56.31-9.48,3.34-38.29-8.04-31.54-12.41-51.45-44.5-52.97-46.51-1.17-1.56-7.92-10.49-11.08-21.34-.94-3.38-1.59-6.92-1.59-10.49,0-15.17,7.99-22.64,10.85-25.72,2.86-3.09,6.26-3.52,8.28-3.83,2.34-.36,4.03-.36,5.82-.36s4.57-.42,7.11,5.75c2.6,6.17,8.83,21.34,9.61,22.86.78,1.53,1.3,3.31.23,5.39-.71,1.46-1.23,2.53-1.95,3.67-.36.49-.71.94-1.1,1.49-1.59,1.79-3.25,3.96-4.68,5.39-1.56,1.53-3.15,3.22-1.36,6.3,1.79,3.09,8.05,13.15,17.25,21.27,11.85,10.56,21.86,13.74,24.94,15.3,3.15,1.56,4.9,1.3,6.76-.78,1.79-2.01,7.76-8.96,9.84-12.05,2.08-3.09,4.16-2.6,6.98-1.53,2.86,1.01,18.09,8.48,21.21,10"/>
    <g>
      <path class="cls-3" d="M154.68,110.88c-2.32.86-4.66,0-5.52-2.32-7.18-17.52-22.33-31.08-44.96-40.75-2.35-.86-3-3.45-2.34-5.52.85-2.34,3.45-3,5.52-2.34,24.49,10.61,41.38,25.86,49.35,45.22,1.33,2.24,0,4.67-2.04,5.72"/>
      <path class="cls-3" d="M172.43,100.46c-2.79.93-5.89-.05-6.83-2.84-8.32-20.04-29.03-39.35-50.53-46.51-2.62-1.06-4.31-3.99-3.25-6.6,1.06-2.62,3.98-4.31,6.6-3.25,24.67,8.62,47.41,29.81,56.93,52.85,1.06,2.05-.13,5.42-2.93,6.35"/>
    </g>
  </g>
</svg>