<?xml version="1.0" encoding="UTF-8"?>
<svg id="Layer_1" xmlns="http://www.w3.org/2000/svg" viewBox="0 0 220 220">
  <defs>
    <style>
      .cls-1 {
        fill: #235347;
      }

      .cls-2 {
        fill: #daf1de;
      }
    </style>
  </defs>
  <rect class="cls-1" x="4.37" y="4.37" width="211.27" height="211.27" rx="17.54" ry="17.54"/>
  <path class="cls-2" d="M167.55,85.37h0s-.15-.15-.15-.15c-.45-.48-.92-.96-1.39-1.42l-15.19-15.6s0,0,0,0c-9.92-10.41-23.91-16.91-39.43-16.91-30.09,0-54.48,24.39-54.48,54.48,0,14.63,5.77,27.9,15.16,37.68h0s.31.32.31.32c.07.08.15.15.22.23,6.1,5.38,12.93,11.2,20.81,15.38-9.66-2.75-22.17-11.51-26.86-15.22H31.41l10.01,2.83-1.22,5.96,8.65,1.48-1.44,5.74,9.09,1.92-.89,6.29,8.49,1.31v7.18h60.36c1.06.06,2.12.1,3.19.1,30.09,0,54.48-24.39,54.48-54.48,0-14.33-5.54-27.37-14.59-37.09ZM93.39,121.64c0-18.53,15.02-33.55,33.55-33.55,6.33,0,12.25,1.76,17.31,4.81.7,2.85,1.09,5.83,1.09,8.9,0,20.55-16.65,37.2-37.2,37.2-3.77,0-7.4-.57-10.83-1.61-2.5-4.69-3.92-10.05-3.92-15.74ZM126.94,155.19c-9.89,0-18.78-4.28-24.92-11.09,2.98.72,6.1,1.11,9.3,1.11,21.88,0,39.61-17.74,39.61-39.61,0-2.84-.32-5.6-.89-8.27,6.43,6.11,10.45,14.74,10.45,24.32,0,18.53-15.02,33.55-33.55,33.55Z"/>
</svg>