<?xml version="1.0" encoding="UTF-8"?>
<svg id="Layer_1" xmlns="http://www.w3.org/2000/svg" viewBox="0 0 220 220">
  <defs>
    <style>
      .cls-1 {
        fill: #235347;
      }

      .cls-2 {
        fill: #daf1de;
      }
    </style>
  </defs>
  <circle class="cls-1" cx="110" cy="110" r="108.42"/>
  <g>
    <path class="cls-2" d="M144.66,145.05c-18.53,16.73-47.2,16.23-65.05-1.63-18.43-18.43-18.43-48.42,0-66.85,17.77-17.77,46.26-18.36,64.8-1.85l-7.72,7.72,30.39,3.71-3.71-30.39-7.76,7.76c-24.7-22.65-63.22-22.02-87.14,1.9-24.58,24.58-24.58,64.56,0,89.14,24,24,62.7,24.55,87.38,1.67l-11.19-11.19Z"/>
    <path class="cls-2" d="M133.71,136.09l-21.51-25.09-2.53-32.96c-.15-1.99-3.07-1.99-3.22,0l-2.8,36.5h0s27.79,23.83,27.79,23.83c1.51,1.3,3.58-.76,2.28-2.28Z"/>
  </g>
</svg>