<?xml version="1.0" encoding="UTF-8"?>
<svg id="Layer_1" xmlns="http://www.w3.org/2000/svg" xmlns:xlink="http://www.w3.org/1999/xlink" viewBox="0 0 359.07 358.6">
  <defs>
    <style>
      .cls-1 {
        fill: none;
      }

      .cls-2 {
        fill: #235347;
      }

      .cls-3 {
        fill: #8eb69b;
      }

      .cls-4 {
        fill: #fff;
      }

      .cls-5 {
        clip-path: url(#clippath);
      }
    </style>
    <clipPath id="clippath">
      <circle class="cls-1" cx="179.54" cy="179.06" r="179.54"/>
    </clipPath>
  </defs>
  <g class="cls-5">
    <circle class="cls-4" cx="179.54" cy="179.06" r="179.54"/>
    <path class="cls-2" d="M305.68,175.69h-3.74s0,0,0,0c-.01,0-.03,0-.04,0H84.25c-5.23,0-9.47,4.24-9.47,9.47v13.63h-18.91c-3.63,0-6.59-3.78-6.59-8.43v-56.64c0-4.65,2.96-8.43,6.59-8.43h113.17c7.94,0,14.4-7.29,14.4-16.24v-42.87h3.37c4.28,0,7.75-3.47,7.75-7.75V-41.69c0-4.28-3.47-7.75-7.75-7.75h-14.55c-4.28,0-7.75,3.47-7.75,7.75V58.44c0,4.28,3.47,7.75,7.75,7.75h3.37v42.87c0,4.65-2.96,8.43-6.59,8.43H55.87c-7.94,0-14.41,7.29-14.41,16.24v56.64c0,8.96,6.46,16.24,14.41,16.24h18.91v13.63c0,5.23,4.24,9.47,9.47,9.47h221.43c4.42,0,8.01-3.59,8.01-8.01v-38c0-4.42-3.59-8.01-8.01-8.01Z"/>
    <path class="cls-3" d="M306.24,168.71H80.9c-4.5,0-8.15,3.65-8.15,8.15l.17,16.55c-.17,11.08,10.57,12.07,12.77,2.15,2.51-11.29,24.97-6.2,14.31,7.55-1.26,1.63-2.11,3.55-2.38,5.6-.1.77-.15,1.55-.08,2.28.57,6.4,5.94,11.52,12.36,11.79,7.41.31,13.51-5.61,13.51-12.95,0-1.75-.35-3.42-.98-4.94,0,0,0,0,0,0,0,0,0,0,0-.01-.41-.98-.94-1.9-1.56-2.74-5.25-10.49.57-18.12,8.18-18.61s17.52,3.81,14.09,11.06c-.42.61-.77,1.28-1.05,1.98,0,0,0,.01-.01.02,0,0,0,0,0,0-.58,1.45-.85,3.06-.69,4.75.47,5.14,4.86,9.24,10.02,9.36,5.8.13,10.54-4.53,10.54-10.3,0-1.21-.22-2.36-.6-3.44,0-.03,0-.06-.02-.09-.04-.08-.07-.16-.1-.24-.06-.14-.11-.28-.18-.42-2.52-6.31-.16-17.39,13.51-17.54,13.06-.14,19.14,6.67,13.58,18.78-.21.43-.39.88-.55,1.34-.02.03-.03.07-.04.1,0,0,0,0,0,0-.62,1.82-.86,3.82-.57,5.92.86,6.26,6.28,11.09,12.59,11.21,7.27.14,13.21-5.72,13.21-12.96,0-1.15-.17-2.27-.45-3.33,0,0-2.21-6.39-2.21-6.39-3.37-10.51,8.69-13.35,13.53-12.62,21.59,3.27,18.2,46.66,10.49,58.54-.68,1.04-1.63,3.66-1.37,5.67.47,3.7,5.16,8.87,8.87,9.26,4.91.52,11.89-2.14,11.95-10.36.01-1.45-.38-2.81-1.05-3.99,0,0,0,0,0,0,0-.01-.01-.02-.02-.04-.12-.21-.25-.42-.38-.61-6.36-10.42-4.7-40.8,11.09-44.68,6.28-1.55,15.11,2.67,9.74,14.1,0,0,0,0,0,.01,0,0,0,0,0,0-.59,1.45-.87,3.07-.73,4.77.43,5.15,4.79,9.27,9.95,9.42,5.83.17,10.04-4.53,10.62-10.3.17-1.69,0-4.4-1.7-7.69-8.16-15.75,1.82-24.73,8.32-23.97,7.52.88,5.76,9.28,12.9,9.77,3.49.24,3.56-5.33,3.56-7.4v-4.88c0-5.32-4.32-9.64-9.64-9.64Z"/>
    <path class="cls-3" d="M251.33,277.83c-.1-.18-.19-.37-.31-.54l-5.88-10.18c-.63-1.09-2.21-1.09-2.84,0l-5.88,10.18c-.12.17-.2.35-.3.53l-.24.44c-.94,1.8-1.34,3.92-.74,6.23.95,3.65,4.16,6.4,7.92,6.67,5.2.38,9.53-3.73,9.53-8.84,0-1.47-.39-2.84-1.02-4.06h.02l-.25-.43Z"/>
    <path class="cls-3" d="M74.43,228.5h-.01l.2.38c.08.16.15.32.24.47l2.42,4.69c.59,1.14.59,2.55,0,3.69l-.67,1.29c-.06.1-.11.21-.17.32l-.13.27c-.51,1.1-.73,2.39-.4,3.79.52,2.22,2.27,3.9,4.32,4.07,2.83.23,5.2-2.27,5.2-5.39,0-.9-.21-1.73-.56-2.47h0l-.14-.26c-.06-.11-.1-.22-.17-.33l-.67-1.29c-.59-1.14-.59-2.55,0-3.69l2.42-4.69c.09-.15.16-.31.24-.46l.19-.39c.73-1.58,1.05-3.44.58-5.46-.75-3.2-3.26-5.62-6.22-5.86-4.08-.33-7.49,3.27-7.49,7.76,0,1.29.31,2.49.8,3.56Z"/>
    <path class="cls-3" d="M161.74,251.18h.02l-.3-.57c-.12-.24-.23-.49-.37-.71l-3.68-7.12c-.9-1.73-.9-3.88,0-5.61l1.02-1.97c.1-.15.17-.33.25-.49l.2-.41c.77-1.67,1.11-3.63.61-5.76-.79-3.38-3.44-5.92-6.56-6.18-4.3-.35-7.89,3.45-7.89,8.18,0,1.36.32,2.62.85,3.75h-.01l.21.4c.09.16.16.34.26.5l1.02,1.97c.9,1.73.9,3.88,0,5.61l-3.68,7.12c-.14.22-.24.47-.36.7l-.28.58c-1.12,2.4-1.6,5.23-.88,8.3,1.14,4.87,4.96,8.53,9.45,8.9,6.2.5,11.37-4.97,11.37-11.79,0-1.96-.47-3.78-1.22-5.41Z"/>
    <path class="cls-3" d="M316.27,204.86c-1.38-2.99-6.14-2.53-6.85.86-.79,3.77-7.49,13.84,1.24,17.42,6.61,2.71,9.61-9.61,5.62-18.27Z"/>
  </g>
</svg>