<?xml version="1.0" encoding="UTF-8"?>
<svg id="Layer_1" xmlns="http://www.w3.org/2000/svg" viewBox="0 0 1919 1727.95">
  <defs>
    <style>
      .cls-1 {
        font-size: 53px;
      }

      .cls-1, .cls-2, .cls-3, .cls-4, .cls-5, .cls-6, .cls-7, .cls-8, .cls-9, .cls-10, .cls-11, .cls-12 {
        fill: #235347;
      }

      .cls-1, .cls-13, .cls-11 {
        font-family: MinionVariableConcept-Roman, 'Minion Variable Concept';
        font-variation-settings: 'wght' 400, 'opsz' 11;
      }

      .cls-2, .cls-10, .cls-14, .cls-12 {
        font-family: Avenir-Medium, Avenir;
        font-weight: 500;
      }

      .cls-2, .cls-15, .cls-14, .cls-16, .cls-17 {
        font-size: 35px;
      }

      .cls-18, .cls-19, .cls-20, .cls-21 {
        font-family: Avenir-Heavy, Avenir;
        font-weight: 800;
      }

      .cls-3 {
        letter-spacing: .02em;
      }

      .cls-4 {
        letter-spacing: .02em;
      }

      .cls-5 {
        letter-spacing: .02em;
      }

      .cls-6 {
        letter-spacing: .04em;
      }

      .cls-7 {
        letter-spacing: .03em;
      }

      .cls-8 {
        letter-spacing: .03em;
      }

      .cls-13 {
        font-size: 66.69px;
      }

      .cls-10, .cls-12 {
        font-size: 27px;
      }

      .cls-22, .cls-23, .cls-24, .cls-25, .cls-15, .cls-16, .cls-17 {
        fill: #8eb69b;
      }

      .cls-26 {
        fill: #fff;
      }

      .cls-23 {
        letter-spacing: .03em;
      }

      .cls-11 {
        font-size: 70px;
      }

      .cls-19 {
        letter-spacing: -.04em;
      }

      .cls-24 {
        letter-spacing: 0em;
      }

      .cls-25 {
        letter-spacing: .03em;
      }

      .cls-27, .cls-28, .cls-15, .cls-16 {
        font-family: Avenir-Roman, Avenir;
      }

      .cls-27, .cls-15, .cls-20, .cls-29 {
        letter-spacing: .05em;
      }

      .cls-30 {
        fill-rule: evenodd;
      }

      .cls-30, .cls-31, .cls-14 {
        fill: #daf1de;
      }

      .cls-32 {
        letter-spacing: -.02em;
      }

      .cls-33 {
        letter-spacing: -.02em;
      }

      .cls-34 {
        letter-spacing: -.04em;
      }

      .cls-21, .cls-35 {
        letter-spacing: .03em;
      }

      .cls-36 {
        letter-spacing: .06em;
      }

      .cls-37 {
        letter-spacing: .06em;
      }

      .cls-38 {
        letter-spacing: .03em;
      }

      .cls-39 {
        letter-spacing: .03em;
      }

      .cls-40 {
        letter-spacing: .03em;
      }

      .cls-41 {
        letter-spacing: .02em;
      }

      .cls-42, .cls-12 {
        letter-spacing: .05em;
      }

      .cls-43 {
        letter-spacing: .05em;
      }

      .cls-44 {
        letter-spacing: .04em;
      }

      .cls-45 {
        letter-spacing: .04em;
      }

      .cls-46 {
        letter-spacing: .04em;
      }

      .cls-47 {
        letter-spacing: .04em;
      }

      .cls-48 {
        letter-spacing: .04em;
      }

      .cls-49 {
        letter-spacing: .03em;
      }

      .cls-50 {
        letter-spacing: .03em;
      }

      .cls-51 {
        letter-spacing: .03em;
      }

      .cls-52 {
        letter-spacing: .04em;
      }

      .cls-53 {
        letter-spacing: .03em;
      }
    </style>
  </defs>
  <text class="cls-12" transform="translate(1644.9 125.07)"><tspan x="0" y="0">ABOUT US</tspan></text>
  <text class="cls-10" transform="translate(1415.09 125.07)"><tspan class="cls-42" x="0" y="0">CON</tspan><tspan class="cls-34" x="67.01" y="0">T</tspan><tspan class="cls-42" x="81.38" y="0">ACT</tspan></text>
  <text class="cls-12" transform="translate(1184.64 125.07)"><tspan x="0" y="0">SERVICES</tspan></text>
  <text class="cls-12" transform="translate(974.15 125.07)"><tspan x="0" y="0">HOME</tspan></text>
  <rect class="cls-31" y="206.03" width="1919" height="52.35"/>
  <text class="cls-11" transform="translate(96.72 444.96)"><tspan class="cls-46" x="0" y="0">C</tspan><tspan class="cls-35" x="50.68" y="0">O</tspan><tspan class="cls-48" x="105.77" y="0">N</tspan><tspan class="cls-32" x="162.12" y="0">T</tspan><tspan class="cls-44" x="204.89" y="0">A</tspan><tspan class="cls-49" x="250.04" y="0">C</tspan><tspan class="cls-38" x="300.64" y="0">T </tspan><tspan class="cls-41" x="365.04" y="0">U</tspan><tspan class="cls-38" x="418.24" y="0">S</tspan></text>
  <g>
    <rect class="cls-31" x="813.2" y="530.55" width="979.1" height="1024.43"/>
    <text class="cls-2" transform="translate(872.9 621.06)"><tspan x="0" y="0">First Name</tspan></text>
    <rect class="cls-26" x="872.9" y="656.4" width="408.11" height="61.37"/>
    <text class="cls-2" transform="translate(1320.2 621.27)"><tspan x="0" y="0">Last Name</tspan></text>
    <rect class="cls-26" x="1320.2" y="656.61" width="408.11" height="61.37"/>
    <text class="cls-2" transform="translate(872.9 800.94)"><tspan x="0" y="0">Email Add</tspan><tspan class="cls-33" x="163.31" y="0">r</tspan><tspan x="175.63" y="0">ess</tspan></text>
    <rect class="cls-26" x="872.9" y="836.28" width="855.41" height="61.37"/>
    <text class="cls-2" transform="translate(872.9 981.25)"><tspan x="0" y="0">Message</tspan></text>
    <rect class="cls-26" x="872.9" y="1016.59" width="855.41" height="332.31"/>
    <g>
      <rect class="cls-9" x="1107.51" y="1414.42" width="390.49" height="82.24"/>
      <text class="cls-14" transform="translate(1236.69 1468.78)"><tspan x="0" y="0">SUBMIT</tspan></text>
    </g>
  </g>
  <g>
    <g>
      <circle class="cls-9" cx="144.88" cy="590.91" r="48.16"/>
      <g>
        <path class="cls-30" d="M167.18,605.97c1.37.69,2.29,1.02,2.64,1.59.35.58.35,3.32-.82,6.51-1.13,3.22-6.38,6.08-8.84,6.69-1.58.14-4.21,1.48-17.01-3.57-14.01-5.51-22.85-19.76-23.53-20.66-.52-.69-3.52-4.66-4.92-9.48-.42-1.5-.71-3.07-.71-4.66,0-6.74,3.55-10.05,4.82-11.42,1.27-1.37,2.78-1.56,3.68-1.7,1.04-.16,1.79-.16,2.59-.16s2.03-.19,3.16,2.55c1.15,2.74,3.92,9.48,4.27,10.16.35.68.58,1.47.1,2.39-.32.65-.55,1.13-.87,1.63-.16.22-.32.42-.49.66-.71.79-1.44,1.76-2.08,2.39-.69.68-1.4,1.43-.61,2.8.79,1.37,3.58,5.84,7.66,9.45,5.27,4.69,9.71,6.1,11.08,6.79,1.4.69,2.18.58,3-.35.79-.89,3.45-3.98,4.37-5.35s1.85-1.15,3.1-.68c1.27.45,8.03,3.76,9.42,4.44"/>
        <g>
          <path class="cls-31" d="M164.7,591.65c-1.03.38-2.07,0-2.45-1.03-3.19-7.78-9.92-13.8-19.97-18.1-1.04-.38-1.33-1.53-1.04-2.45.38-1.04,1.53-1.33,2.45-1.04,10.88,4.71,18.38,11.49,21.92,20.08.59,1,0,2.07-.91,2.54"/>
          <path class="cls-31" d="M172.58,587.03c-1.24.41-2.62-.02-3.03-1.26-3.69-8.9-12.9-17.48-22.44-20.66-1.17-.47-1.91-1.77-1.44-2.93.47-1.17,1.77-1.91,2.93-1.44,10.96,3.83,21.06,13.24,25.29,23.47.47.91-.06,2.41-1.3,2.82"/>
        </g>
      </g>
    </g>
    <g>
      <circle class="cls-9" cx="144.88" cy="774.69" r="48.16"/>
      <g>
        <path class="cls-31" d="M120.15,755.07c-.6,0-1.17.12-1.69.33l24.84,22.99c1.07.99,2.02.99,3.09,0l24.91-22.97c-.52-.21-1.09-.33-1.69-.33l-49.47-.02Z"/>
        <g>
          <path class="cls-31" d="M120.14,794.29l49.47.02c.15,0,.3,0,.45-.02l-21.57-13.11c-2.2,1.38-5.05,1.39-7.25.02l-21.51,13.08c.14.01.27.02.41.02Z"/>
          <path class="cls-31" d="M138.97,779.25l-23.27-21.55c-.03.2-.05.4-.05.61v31.48c-.01,1.14.41,2.17,1.1,2.97l22.21-13.5Z"/>
          <path class="cls-31" d="M173,792.75c.68-.79,1.1-1.82,1.1-2.95v-31.48c.01-.2,0-.41-.04-.61l-23.31,21.52,22.24,13.52Z"/>
        </g>
      </g>
    </g>
    <text class="cls-1" transform="translate(228.1 580.86)"><tspan class="cls-40" x="0" y="0">P</tspan><tspan class="cls-50" x="31.96" y="0">HO</tspan><tspan class="cls-45" x="116.97" y="0">N</tspan><tspan class="cls-39" x="159.26" y="0">E</tspan></text>
    <text class="cls-15" transform="translate(228.1 629.45)"><tspan x="0" y="0">920-252-2463</tspan></text>
    <text class="cls-1" transform="translate(230.49 767.06)"><tspan class="cls-40" x="0" y="0">E</tspan><tspan class="cls-36" x="32.65" y="0">M</tspan><tspan class="cls-47" x="83.69" y="0">A</tspan><tspan class="cls-52" x="118.19" y="0">I</tspan><tspan class="cls-39" x="139.18" y="0">L</tspan></text>
    <text class="cls-16" transform="translate(230.49 815.64)"><tspan class="cls-29" x="0" y="0">adam-a</tspan><tspan class="cls-43" x="127.85" y="0">t</tspan><tspan class="cls-29" x="141.96" y="0">tar@truefinish.net</tspan></text>
    <circle class="cls-9" cx="145.52" cy="958.47" r="48.16"/>
    <g>
      <path class="cls-31" d="M160.92,974.04c-8.23,7.43-20.96,7.21-28.89-.72-8.19-8.19-8.19-21.51,0-29.69s20.55-8.15,28.78-.82l-3.43,3.43,13.5,1.65-1.65-13.5-3.45,3.45c-10.97-10.06-28.08-9.78-38.7.84-10.92,10.92-10.92,28.68,0,39.59,10.66,10.66,27.85,10.9,38.81.74l-4.97-4.97Z"/>
      <path class="cls-31" d="M156.05,970.06l-9.55-11.15-1.12-14.64c-.07-.88-1.36-.88-1.43,0l-1.25,16.21h0s12.34,10.58,12.34,10.58c.67.58,1.59-.34,1.01-1.01Z"/>
    </g>
    <text class="cls-1" transform="translate(230.49 948.42)"><tspan class="cls-51" x="0" y="0">H</tspan><tspan class="cls-53" x="43.3" y="0">O</tspan><tspan class="cls-40" x="84.96" y="0">U</tspan><tspan class="cls-37" x="125.56" y="0">R</tspan><tspan class="cls-39" x="161.38" y="0">S</tspan></text>
    <text class="cls-17" transform="translate(230.49 1006.01)"><tspan class="cls-29"><tspan class="cls-18" x="0" y="0">Monday:</tspan><tspan class="cls-28" x="155.47" y="0" xml:space="preserve"> 8am - 5pm</tspan></tspan><tspan class="cls-19" x="0" y="66">T</tspan><tspan class="cls-20" x="18.62" y="66">uesday:</tspan><tspan class="cls-27" x="155.96" y="66" xml:space="preserve"> 8am - 5pm</tspan><tspan class="cls-21" x="0" y="132">W</tspan><tspan class="cls-20" x="35.46" y="132">ednesday:</tspan><tspan class="cls-27" x="218.43" y="132" xml:space="preserve"> 8am - 5pm</tspan><tspan class="cls-29"><tspan class="cls-18" x="0" y="198">Thursday:</tspan><tspan class="cls-28" x="174.54" y="198" xml:space="preserve"> 8am - 5pm</tspan></tspan><tspan class="cls-29"><tspan class="cls-18" x="0" y="264">Friday:</tspan><tspan class="cls-28" x="124.42" y="264" xml:space="preserve"> 8am - 5pm</tspan></tspan><tspan class="cls-20" x="0" y="330">Satu</tspan><tspan class="cls-21" x="79.59" y="330">r</tspan><tspan class="cls-20" x="94.32" y="330">day:</tspan><tspan class="cls-27" x="170.69" y="330" xml:space="preserve"> Closed</tspan><tspan class="cls-29"><tspan class="cls-18" x="0" y="396">Sunday:</tspan><tspan class="cls-28" x="141.89" y="396" xml:space="preserve"> Closed</tspan></tspan></text>
  </g>
  <g>
    <text class="cls-13" transform="translate(69.46 134.76)"><tspan class="cls-25" x="0" y="0">T</tspan><tspan class="cls-24" x="44.28" y="0">R</tspan><tspan class="cls-23" x="85.57" y="0">UE</tspan><tspan class="cls-4" x="177.47" y="0" xml:space="preserve">  </tspan><tspan class="cls-7" x="211.88" y="0">F</tspan><tspan class="cls-6" x="250.43" y="0">I</tspan><tspan class="cls-8" x="276.71" y="0">N</tspan><tspan class="cls-5" x="329.79" y="0">I</tspan><tspan class="cls-3" x="354.87" y="0">S</tspan><tspan class="cls-4" x="389.08" y="0">H</tspan></text>
    <g>
      <path class="cls-9" d="M345.93,75.46h-36.07c-3.13,0-5.68-2.26-5.68-5.04v-23.21c0-1.27-1.32-2.3-2.95-2.3h-32.92c-1.63,0-2.95,1.03-2.95,2.3v9.04h-2.73v-9.04c0-2.78,2.55-5.04,5.68-5.04h32.92c3.13,0,5.68,2.26,5.68,5.04v23.21c0,1.27,1.32,2.3,2.95,2.3h36.07v2.73Z"/>
      <rect class="cls-9" x="340.35" y="68.83" width="40.45" height="10.52" rx="2.71" ry="2.71"/>
      <path class="cls-9" d="M273.44,133.28s0,0,0,0c0,0,0-.01,0-.02V57.14c0-1.83-1.48-3.31-3.31-3.31h-12.27c-1.83,0-3.31,1.48-3.31,3.31v77.45c0,1.55,1.25,2.8,2.8,2.8h13.29c1.55,0,2.8-1.25,2.8-2.8v-1.31Z"/>
      <path class="cls-22" d="M376.5,72.35v3.49c0,.43-.4.75-.81.66l-3.81-.83c-.31-.07-.53-.34-.53-.66v-1.82c0-.32.22-.59.53-.66l3.81-.83c.42-.09.81.23.81.66Z"/>
      <path class="cls-22" d="M252.48,56.19v79.37c0,1.59,1.29,2.87,2.87,2.87l3.51-.06c3.9.06,4.14-3.34.76-4.5-2.77-.94.14-8.79,4.98-5.04.57.44,1.25.74,1.97.84.27.04.55.05.8.03,2.26-.2,4.06-2.09,4.15-4.35.11-2.61-1.98-4.76-4.56-4.76-.62,0-1.2.12-1.74.35,0,0,0,0,0,0,0,0,0,0,0,0-.35.14-.67.33-.96.55-3.7,1.85-6.38-.2-6.55-2.88s1.34-6.17,3.9-4.96c.22.15.45.27.7.37,0,0,0,0,0,0,0,0,0,0,0,0,.51.2,1.08.3,1.67.24,1.81-.17,3.25-1.71,3.3-3.53.05-2.04-1.6-3.71-3.63-3.71-.43,0-.83.08-1.21.21-.01,0-.02,0-.03,0-.03.01-.06.02-.08.04-.05.02-.1.04-.15.06-2.22.89-6.13.06-6.18-4.76-.05-4.6,2.35-6.74,6.62-4.78.15.07.31.14.47.19.01,0,.02.01.03.02,0,0,0,0,0,0,.64.22,1.35.3,2.08.2,2.2-.3,3.91-2.21,3.95-4.44.05-2.56-2.01-4.65-4.56-4.65-.41,0-.8.06-1.17.16,0,0,0,0,0,0-4.13.87-5.03-1.78-5.23-4.2-.31-3.59,4.18-7.89,8.3-5.08.02.02.05.03.07.04,0,0,0,0,.01,0,0,0,0,0,0,0,.54.35,1.21.52,1.92.43,1.3-.16,2.35-1.23,2.49-2.54.18-1.73-1.17-3.19-2.86-3.19-.51,0-.99.13-1.41.37,0,0,0,0,0,0,0,0,0,0-.01,0-.07.04-.15.09-.22.14-3.67,2.24-9.58.34-9.67-4.17-.05-2.28,1.14-6.34,5.17-4.45,0,0,0,0,0,0,0,0,0,0,0,0,.51.21,1.08.31,1.68.26,1.81-.15,3.26-1.69,3.32-3.51.06-2.05-1.59-3.74-3.63-3.74-.43,0-.84.08-1.22.22,0,0,0,0,0,0-3.26,2.01-5.62,1.03-5.35-1.26.31-2.65,3.27-2.03,3.44-4.54.09-1.23-1.88-1.25-2.61-1.25h-1.72c-1.88,0-3.4,1.52-3.4,3.4Z"/>
    </g>
  </g>
</svg>