<?xml version="1.0" encoding="UTF-8"?>
<svg id="Layer_1" xmlns="http://www.w3.org/2000/svg" viewBox="0 0 1157.74 358.12">
  <defs>
    <style>
      .cls-1 {
        letter-spacing: .02em;
      }

      .cls-1, .cls-2, .cls-3, .cls-4, .cls-5, .cls-6, .cls-7, .cls-8 {
        fill: #235347;
      }

      .cls-2, .cls-9 {
        letter-spacing: .03em;
      }

      .cls-3 {
        letter-spacing: .02em;
      }

      .cls-4 {
        letter-spacing: .02em;
      }

      .cls-5 {
        letter-spacing: .04em;
      }

      .cls-6 {
        letter-spacing: .03em;
      }

      .cls-7 {
        letter-spacing: .03em;
      }

      .cls-10, .cls-9, .cls-11, .cls-12, .cls-13 {
        fill: #8eb69b;
      }

      .cls-11 {
        letter-spacing: 0em;
      }

      .cls-12 {
        letter-spacing: .03em;
      }

      .cls-13 {
        font-family: Avenir-Roman, Avenir;
        font-size: 54.59px;
      }

      .cls-14 {
        letter-spacing: .05em;
      }

      .cls-15 {
        letter-spacing: .05em;
      }

      .cls-16 {
        letter-spacing: .05em;
      }

      .cls-17 {
        font-family: MinionVariableConcept-Roman, 'Minion Variable Concept';
        font-size: 170.59px;
        font-variation-settings: 'wght' 400, 'opsz' 11;
      }
    </style>
  </defs>
  <text class="cls-17" transform="translate(13.98 252.34)"><tspan class="cls-12" x="0" y="0">T</tspan><tspan class="cls-11" x="113.27" y="0">R</tspan><tspan class="cls-9" x="218.86" y="0">UE</tspan><tspan class="cls-2" x="453.92" y="0" xml:space="preserve">  </tspan><tspan class="cls-6" x="541.94" y="0">F</tspan><tspan class="cls-5" x="640.54" y="0">I</tspan><tspan class="cls-7" x="707.75" y="0">N</tspan><tspan class="cls-4" x="843.53" y="0">I</tspan><tspan class="cls-1" x="907.67" y="0">S</tspan><tspan class="cls-3" x="995.18" y="0">H</tspan></text>
  <text class="cls-13" transform="translate(216.06 329.72)"><tspan class="cls-15" x="0" y="0">paint and drywa</tspan><tspan class="cls-16" x="435.33" y="0">l</tspan><tspan class="cls-14" x="451.21" y="0">l company</tspan></text>
  <g>
    <path class="cls-8" d="M721.1,100.67h-92.25c-8.01,0-14.53-5.78-14.53-12.89V28.42c0-3.25-3.38-5.89-7.54-5.89h-84.21c-4.16,0-7.54,2.64-7.54,5.89v23.13h-6.99v-23.13c0-7.11,6.52-12.89,14.53-12.89h84.21c8.01,0,14.53,5.78,14.53,12.89v59.37c0,3.25,3.38,5.89,7.54,5.89h92.25v6.99Z"/>
    <rect class="cls-8" x="706.84" y="83.73" width="103.46" height="26.9" rx="6.94" ry="6.94"/>
    <path class="cls-8" d="M535.7,248.58s0,0,0,0c0-.01,0-.03,0-.04V53.81c0-4.68-3.79-8.48-8.48-8.48h-31.38c-4.68,0-8.48,3.79-8.48,8.48v198.11c0,3.96,3.21,7.17,7.17,7.17h34c3.96,0,7.17-3.21,7.17-7.17v-3.34Z"/>
    <path class="cls-10" d="M799.29,92.72v8.92c0,1.1-1.01,1.91-2.08,1.68l-9.75-2.13c-.79-.17-1.35-.87-1.35-1.68v-4.66c0-.81.56-1.51,1.35-1.68l9.75-2.13c1.07-.23,2.08.58,2.08,1.68Z"/>
    <path class="cls-10" d="M482.08,51.38v203c0,4.06,3.29,7.34,7.34,7.34l8.97-.15c9.99.15,11.62-6.93,1.94-11.5-10.57-4.99.35-22.49,12.74-12.89,1.47,1.14,3.2,1.9,5.04,2.14.69.09,1.4.13,2.05.07,5.77-.51,10.38-5.35,10.62-11.13.28-6.68-5.05-12.18-11.67-12.18-1.58,0-3.08.32-4.45.88,0,0,0,0,0,0,0,0,0,0-.01,0-.88.37-1.71.85-2.47,1.41-9.45,4.73-16.32-.51-16.76-7.37s3.43-15.78,9.96-12.7c.55.38,1.15.69,1.78.95,0,0,.01,0,.02.01,0,0,0,0,0,0,1.31.52,2.76.76,4.28.62,4.63-.43,8.32-4.37,8.43-9.03.12-5.23-4.08-9.5-9.28-9.5-1.09,0-2.13.2-3.1.54-.03,0-.05,0-.08.02-.07.03-.14.06-.22.09-.13.05-.25.1-.38.16-5.68,2.27-15.67.15-15.8-12.17-.12-11.77,6-17.24,16.92-12.24.39.19.79.35,1.2.5.03.01.06.03.09.04,0,0,0,0,0,0,1.64.56,3.44.78,5.33.52,5.64-.78,9.99-5.66,10.1-11.34.12-6.55-5.15-11.9-11.68-11.9-1.04,0-2.04.15-3,.4,0,0,0,0,0-.01-10.56,2.22-12.86-4.55-13.39-10.74-.79-9.18,10.7-20.19,21.23-12.99.06.04.12.08.17.11,0,0,.02.01.03.02,0,0,0,0,0,0,1.39.89,3.09,1.33,4.91,1.11,3.33-.42,6.02-3.16,6.38-6.5.47-4.43-2.99-8.17-7.32-8.17-1.31,0-2.53.34-3.6.94,0,0,0,0,0,0-.01,0-.02.01-.03.02-.19.11-.38.22-.55.35-9.39,5.73-24.5.86-24.74-10.67-.12-5.83,2.92-16.21,13.21-11.38,0,0,0,0,.01,0,0,0,0,0,0,0,1.31.53,2.76.79,4.29.66,4.64-.39,8.35-4.31,8.49-8.96.16-5.26-4.06-9.57-9.28-9.57-1.1,0-2.15.2-3.13.55,0,0,0,0,0,0-8.34,5.13-14.38,2.63-13.69-3.23.79-6.77,8.36-5.19,8.8-11.62.22-3.14-4.8-3.21-6.66-3.21h-4.39c-4.8,0-8.68,3.89-8.68,8.68Z"/>
  </g>
</svg>