<?xml version="1.0" encoding="UTF-8"?>
<svg id="Layer_1" xmlns="http://www.w3.org/2000/svg" viewBox="0 0 220 220">
  <defs>
    <style>
      .cls-1 {
        fill: #235347;
      }

      .cls-2 {
        fill: #daf1de;
      }
    </style>
  </defs>
  <rect class="cls-1" x="4.37" y="4.37" width="211.27" height="211.27" rx="17.54" ry="17.54"/>
  <path class="cls-2" d="M160.18,45.12c.6-2.27-1.1-4.49-3.45-4.49H63.27c-2.35,0-4.05,2.22-3.45,4.49l14.89,55.77c2.98.68,7.57,1.37,11.54,1.86h-12.86c-1.3,0-2.35,1.05-2.35,2.35h0c0,9.63,7.8,17.43,17.43,17.43h10.76c.49,14.71-.8,29.68-3.59,44.87-.58,3.16-.18,6.46,1.34,9.28,2.5,4.62,7.39,7.76,13.01,7.76h0c5.36,0,10.05-2.85,12.64-7.12,1.83-3.02,2.33-6.66,1.64-10.12-3.06-15.44-4.41-30.37-3.63-44.67h10.88c9.63,0,17.43-7.8,17.43-17.43h0c0-1.3-1.05-2.35-2.35-2.35h-12.54c3.85-.48,8.27-1.14,11.25-1.8l14.86-55.84ZM109.98,176.12c-2.9,0-5.25-2.35-5.25-5.25s2.35-5.25,5.25-5.25,5.25,2.35,5.25,5.25-2.35,5.25-5.25,5.25Z"/>
</svg>