<?xml version="1.0" encoding="UTF-8"?>
<svg id="Layer_1" xmlns="http://www.w3.org/2000/svg" viewBox="0 0 220 220">
  <defs>
    <style>
      .cls-1 {
        fill: #235347;
      }

      .cls-2 {
        fill: #daf1de;
      }
    </style>
  </defs>
  <circle class="cls-1" cx="110" cy="110" r="108.42"/>
  <g>
    <path class="cls-2" d="M54.33,65.83c-1.34,0-2.63.27-3.8.74l55.93,51.75c2.4,2.22,4.55,2.22,6.96,0l56.08-51.71c-1.17-.47-2.45-.74-3.8-.74l-111.38-.04Z"/>
    <g>
      <path class="cls-2" d="M54.29,154.13l111.38.04c.34,0,.69-.02,1.02-.05l-48.56-29.51c-4.95,3.11-11.37,3.12-16.32.04l-48.44,29.44c.31.03.61.05.93.05Z"/>
      <path class="cls-2" d="M96.7,120.28l-52.39-48.53c-.06.44-.11.91-.11,1.37l-.03,70.88c0,2.57.95,4.9,2.51,6.68l50.01-30.39Z"/>
      <path class="cls-2" d="M173.32,150.68c1.54-1.77,2.48-4.09,2.48-6.63l.02-70.88c0-.46-.05-.93-.11-1.37l-52.48,48.45,50.08,30.44Z"/>
    </g>
  </g>
</svg>