<?xml version="1.0" encoding="UTF-8"?><svg id="Layer_1" xmlns="http://www.w3.org/2000/svg" viewBox="0 0 220 220"><defs><style>.cls-1{fill:#235347;}.cls-2{fill:#daf1de;}</style></defs><rect class="cls-1" x="4.37" y="4.37" width="211.27" height="211.27" rx="17.54" ry="17.54"/><path class="cls-2" d="M100.92,101.78h75.98c4.05,0,7.34,3.29,7.34,7.34v49.57c0,4.05-3.29,7.34-7.34,7.34h-2.53s0,13.19,0,13.19l-17.16-13.19h-56.29c-4.05,0-7.34-3.29-7.34-7.34v-49.57c0-4.05,3.29-7.34,7.34-7.34Z"/><path class="cls-2" d="M88.3,106.65c0-5.55,4.5-10.05,10.05-10.05h62.78v-39.54c0-5.52-4.47-9.99-9.99-9.99H47.75c-5.52,0-9.99,4.47-9.99,9.99v67.47c0,5.52,4.47,9.99,9.99,9.99h3.44v17.95l23.35-17.95h13.76v-27.87Z"/></svg>